<svg width="0" height="0">
<symbol viewBox="0 0 129 128"  xmlns="http://www.w3.org/2000/svg" id="git">
<path fill-rule="evenodd" clip-rule="evenodd" d="M17.2498 0C7.86095 0 0.249793 7.61116 0.249793 17V33.1551H0.249756V44.0195H0.249793V64V111C0.249793 120.389 7.86095 128 17.2498 128H64.4995H111.749C121.138 128 128.749 120.389 128.749 111V64V17C128.749 7.61116 121.138 0 111.749 0H64.4995H17.2498ZM0.249793 44.0195H27.8026C29.7752 48.8193 34.4968 52.199 40.0078 52.199C41.8017 52.199 43.512 51.8409 45.071 51.1923L78.5781 84.6994C77.9352 86.2525 77.5805 87.9551 77.5805 89.7405C77.5805 97.0253 83.486 102.931 90.7708 102.931C98.0555 102.931 103.961 97.0253 103.961 89.7405C103.961 82.4557 98.0555 76.5502 90.7708 76.5502C89.2761 76.5502 87.8396 76.7988 86.5002 77.2569L53.2628 44.0195H78.628C80.6006 48.8193 85.3222 52.199 90.8332 52.199C98.118 52.199 104.023 46.2936 104.023 39.0088C104.023 31.724 98.118 25.8185 90.8332 25.8185C85.6508 25.8185 81.1664 28.8073 79.0097 33.1551H51.8313C49.6746 28.8073 45.1902 25.8185 40.0078 25.8185C34.8254 25.8185 30.341 28.8073 28.1843 33.1551H0.249793V44.0195Z" />
</symbol>
</svg>
