<svg width="0" height="0"><symbol viewBox="0 0 137 136" xmlns="http://www.w3.org/2000/svg" id="js">
<g filter="url(#filter0_d_43_58)">
<path fill-rule="evenodd" clip-rule="evenodd" d="M4.5 0H132.5V128H4.5V0ZM73.9589 58.6666H62.351V101.208C62.351 102.463 61.2843 107.608 55.8883 107.357C50.4922 107.106 48.0451 101.082 48.0451 101.082L38.4451 106.98C38.4451 106.98 43.7785 117.898 54.5079 117.898C65.2373 117.898 73.9589 113.882 73.9589 101.208V58.6666ZM118.884 67.5765C114.85 60.5602 108.282 57.6466 101.441 58.0392C94.6007 58.4318 84.6254 60.9977 84.3745 74.5412C84.1237 88.0846 100.626 92.8 100.626 92.8C107.504 95.6933 110.738 97.4064 110.539 101.333C109.795 106.157 106.586 107.42 102.445 107.42C98.3039 107.42 94.19 105.561 90.3981 100.141L80.8608 105.663C85.9623 113.734 91.9667 118.023 102.445 117.961C112.924 117.898 122.9 112.502 122.586 101.333C122.273 90.1647 116.876 87.2225 105.959 82.1333C98.7631 79.3103 96.6098 78.0549 96.2334 74.5412C95.8569 71.0275 98.3039 68.3922 101.818 68.3922C105.331 68.3922 107.872 70.2755 109.661 73.6L118.884 67.5765Z" />
</g>
</symbol>
<defs>
<filter id="filter0_d_43_58" x="0.5" y="0" width="136" height="136" filterUnits="userSpaceOnUse" color-interpolation-filters="sRGB">
<feFlood flood-opacity="0" result="BackgroundImageFix"/>
<feColorMatrix in="SourceAlpha" type="matrix" values="0 0 0 0 0 0 0 0 0 0 0 0 0 0 0 0 0 0 127 0" result="hardAlpha"/>
<feOffset dy="4"/>
<feGaussianBlur stdDeviation="2"/>
<feComposite in2="hardAlpha" operator="out"/>
<feColorMatrix type="matrix" values="0 0 0 0 0 0 0 0 0 0 0 0 0 0 0 0 0 0 0.25 0"/>
<feBlend mode="normal" in2="BackgroundImageFix" result="effect1_dropShadow_43_58"/>
<feBlend mode="normal" in="SourceGraphic" in2="effect1_dropShadow_43_58" result="shape"/>
</filter>
</defs>
</svg>
